<?xml version="1.0" encoding="UTF-8"?>
<svg id="Layer_2" data-name="Layer 2" xmlns="http://www.w3.org/2000/svg" xmlns:xlink="http://www.w3.org/1999/xlink" viewBox="0 0 430 428">
  <defs>
    <style>
      .cls-1 {
        fill: url(#linear-gradient-2);
      }

      .cls-2 {
        stroke: url(#linear-gradient-5);
        stroke-width: 1.7px;
      }

      .cls-2, .cls-3 {
        fill: none;
        stroke-miterlimit: 10;
      }

      .cls-4 {
        opacity: .55;
      }

      .cls-5 {
        fill: url(#linear-gradient-4);
      }

      .cls-6 {
        fill: url(#radial-gradient);
      }

      .cls-7 {
        fill: url(#radial-gradient-3);
      }

      .cls-8 {
        fill: #0c0f16;
      }

      .cls-9 {
        fill: url(#radial-gradient-2);
      }

      .cls-10 {
        opacity: .56;
      }

      .cls-11 {
        fill: url(#radial-gradient-4);
      }

      .cls-3 {
        stroke: url(#linear-gradient-3);
        stroke-width: 1.4px;
      }

      .cls-12 {
        fill: url(#linear-gradient);
      }
    </style>
    <linearGradient id="linear-gradient" x1="215" y1="0" x2="215" y2="424" gradientUnits="userSpaceOnUse">
      <stop offset="0" stop-color="#fff" stop-opacity=".89"/>
      <stop offset=".76" stop-color="#231f20" stop-opacity="0"/>
    </linearGradient>
    <radialGradient id="radial-gradient" cx="215" cy="154.82" fx="215" fy="-58.66" r="233.94" gradientUnits="userSpaceOnUse">
      <stop offset=".01" stop-color="#fff" stop-opacity=".89"/>
      <stop offset=".07" stop-color="#f6f5f6" stop-opacity=".85"/>
      <stop offset=".17" stop-color="#dedddd" stop-opacity=".76"/>
      <stop offset=".29" stop-color="#b6b5b5" stop-opacity=".6"/>
      <stop offset=".43" stop-color="#807e7e" stop-opacity=".38"/>
      <stop offset=".59" stop-color="#3b3839" stop-opacity=".1"/>
      <stop offset=".64" stop-color="#231f20" stop-opacity="0"/>
    </radialGradient>
    <linearGradient id="linear-gradient-2" x1="215" y1="170.73" x2="215" y2="423.52" gradientUnits="userSpaceOnUse">
      <stop offset="0" stop-color="#94c940"/>
      <stop offset="1" stop-color="#e3e431"/>
    </linearGradient>
    <linearGradient id="linear-gradient-3" x1="215" y1="170.76" x2="215" y2="393.53" gradientUnits="userSpaceOnUse">
      <stop offset="0" stop-color="#fff"/>
      <stop offset="1" stop-color="#231f20" stop-opacity="0"/>
    </linearGradient>
    <linearGradient id="linear-gradient-4" x1="215" y1="171.46" x2="215" y2="428" gradientUnits="userSpaceOnUse">
      <stop offset="0" stop-color="#fff" stop-opacity="0"/>
      <stop offset=".83" stop-color="#fff" stop-opacity="0"/>
      <stop offset="1" stop-color="#fff" stop-opacity=".7"/>
    </linearGradient>
    <linearGradient id="linear-gradient-5" x1="215" y1="22.01" x2="215" y2="408" gradientUnits="userSpaceOnUse">
      <stop offset="0" stop-color="#fff" stop-opacity=".7"/>
      <stop offset=".7" stop-color="#231f20" stop-opacity="0"/>
    </linearGradient>
    <radialGradient id="radial-gradient-2" cx="195.78" cy="355.73" fx="114.72" fy="355.73" r="93.1" gradientTransform="translate(299.52 159.95) rotate(90) scale(1 .29)" gradientUnits="userSpaceOnUse">
      <stop offset="0" stop-color="#fff"/>
      <stop offset="1" stop-color="#fff" stop-opacity="0"/>
    </radialGradient>
    <radialGradient id="radial-gradient-3" cx="142.13" cy="354.35" fx="61.06" fy="354.35" r="93.1" gradientTransform="translate(129.79 212.22) rotate(90) scale(1 -.29)" xlink:href="#radial-gradient-2"/>
    <radialGradient id="radial-gradient-4" cx="214.48" cy="348.28" fx="132.84" fy="348.28" r="104.89" gradientTransform="translate(323.03 119.93) rotate(90) scale(1.05 .31)" xlink:href="#radial-gradient-2"/>
  </defs>
  <g id="Layer_1-2" data-name="Layer 1">
    <g>
      <g>
        <path class="cls-8" d="M428,215c0,74.55-38.3,140.15-96.29,178.21-1.12.74-2.26-4.53-3.4-3.81-.03.02-.06.04-.1.06-1.15.72-2.31,1.44-3.48,2.14-.76.46-1.53.92-2.31,1.37-1.17.69-2.36,1.37-3.55,2.03-.05.03-.09.06-.13.07-.73.41-1.47.82-2.21,1.22-.75.42-1.51.82-2.27,1.22-.49.26-.98.51-1.47.77-.47.24-.95.49-1.43.73-.56.29-1.13.57-1.7.85-1.17.59-2.34,1.16-3.53,1.71-1.12.54-2.25,1.07-3.39,1.58-.03.01-.05.02-.08.04-1.05.47-2.1.93-3.15,1.39-1.5.65-3,1.28-4.52,1.89-1.96.8-3.94,1.56-5.93,2.31-.59.21-1.18.43-1.78.64-1.31.47-2.63.93-3.95,1.38-1.16.39-2.33.78-3.5,1.15-.5.16-.99.32-1.49.47-1.01.31-2.02.62-3.03.92-1.34.39-2.69.78-4.05,1.15h-.01c-.16.04-.31.09-.47.13-.37.1-.73.2-1.1.29-.66.18-1.32.35-1.99.52-1.06.27-2.13.53-3.2.79-2.17.52-4.36,1-6.56,1.45-.24.05-.49.1-.73.15-.93.19-1.86.37-2.8.54-.2.04-.4.08-.59.11-1.01.19-2.02.37-3.04.54-.02,0-.04.01-.07.01-.75.13-1.51.25-2.28.37-1.72.28-3.46.53-5.2.75-.74.1-1.48.2-2.22.28-.48.07-.97.13-1.45.18-.92.11-1.84.21-2.77.3-.51.05-1.03.1-1.54.15-.52.05-1.04.1-1.56.14-.58.05-1.17.1-1.75.15-.39.03-.77.06-1.16.08-.62.05-1.24.09-1.86.13-.36.03-.73.05-1.09.07-1.52.09-3.05.17-4.59.22-.66.03-1.32.05-1.98.07-.56.02-1.11.03-1.67.04l-1.56.03c-1,0-2.01.02-3.02.02s-2.02-.01-3.02-.02c-.52-.01-1.04-.02-1.55-.03-.56-.01-1.12-.02-1.68-.04-.66-.02-1.32-.04-1.98-.07-1.47-.05-2.94-.12-4.4-.21-.45-.02-.89-.05-1.33-.08-.57-.04-1.14-.08-1.71-.12-.43-.03-.87-.06-1.3-.1-.57-.04-1.14-.09-1.71-.14-.52-.04-1.04-.09-1.56-.14-.51-.05-1.03-.1-1.54-.15-.92-.09-1.85-.19-2.77-.3-.48-.05-.97-.11-1.45-.18-.74-.08-1.48-.18-2.22-.28-.88-.11-1.75-.23-2.63-.36-.53-.08-1.06-.15-1.59-.23-1.09-.17-2.18-.35-3.26-.53-.02,0-.04-.01-.06-.01-1.12-.19-2.24-.39-3.35-.6-.04,0-.08-.01-.11-.02-1.01-.18-2.02-.38-3.02-.58-.23-.05-.46-.1-.69-.14-2.2-.45-4.39-.93-6.56-1.45-1.07-.26-2.13-.52-3.2-.79-.18-.05-.36-.1-.54-.14-.54-.13-1.07-.27-1.6-.42-.34-.09-.68-.19-1.02-.28-.13-.04-.27-.07-.4-.11-.23-.06-.46-.13-.69-.19-1.12-.31-2.23-.62-3.34-.95-1.36-.4-2.71-.81-4.06-1.24-1.33-.42-2.66-.85-3.99-1.3-1.12-.37-2.24-.76-3.35-1.16-.2-.07-.4-.14-.6-.22-2.6-.93-5.17-1.92-7.71-2.95-.17-.07-.35-.14-.52-.21-1.15-.47-2.29-.95-3.42-1.44-2.56-1.09-5.08-2.23-7.58-3.43-1.06-.5-2.11-1.01-3.15-1.53-.24-.12-.47-.24-.71-.35-1.19-.6-2.38-1.21-3.56-1.83-.11-.06-.22-.12-.33-.17-1.03-.55-2.05-1.1-3.06-1.66-.18-.09-.35-.19-.53-.29-1.06-.58-2.12-1.18-3.17-1.78-.14-.08-.29-.17-.44-.26-1.57-.91-3.13-1.84-4.68-2.79-.25-.16-.51-.31-.76-.47-1.49-.92-2.97,4.13-4.44,3.17-.12-.08-.24-.15-.36-.23h0C40.3,355.14,2,289.55,2,215,2,97.36,97.36,2,215,2s213,95.36,213,213Z"/>
        <path class="cls-12" d="M215,2c117.64,0,213,95.36,213,213,0,74.55-38.3,140.15-96.29,178.21-.07.05-.15.07-.22.07-.98,0-1.97-3.95-2.96-3.95-.07,0-.15.02-.22.07-.03.02-.06.04-.1.06-1.15.72-2.31,1.44-3.48,2.14-.76.46-1.53.92-2.31,1.37-1.17.69-2.36,1.37-3.55,2.03-.05.03-.09.06-.13.07-.73.41-1.47.82-2.21,1.22-.75.42-1.51.82-2.27,1.22-.49.26-.98.51-1.47.77-.47.24-.95.49-1.43.73-.56.29-1.13.57-1.7.85-1.17.59-2.34,1.16-3.53,1.71-1.12.54-2.25,1.07-3.39,1.58-.03.01-.05.02-.08.04-1.05.47-2.1.93-3.15,1.39-1.5.65-3,1.28-4.52,1.89-1.96.8-3.94,1.56-5.93,2.31-.59.21-1.18.43-1.78.64-1.31.47-2.63.93-3.95,1.38-1.16.39-2.33.78-3.5,1.15-.5.16-.99.32-1.49.47-1.01.31-2.02.62-3.03.92-1.34.39-2.69.78-4.05,1.15h-.01c-.16.04-.31.09-.47.13-.37.1-.73.2-1.1.29-.66.18-1.32.35-1.99.52-1.06.27-2.13.53-3.2.79-2.17.52-4.36,1-6.56,1.45-.24.05-.49.1-.73.15-.93.19-1.86.37-2.8.54-.2.04-.4.08-.59.11-1.01.19-2.02.37-3.04.54-.02,0-.04.01-.07.01-.75.13-1.51.25-2.28.37-1.72.28-3.46.53-5.2.75-.74.1-1.48.2-2.22.28-.48.07-.97.13-1.45.18-.92.11-1.84.21-2.77.3-.51.05-1.03.1-1.54.15-.52.05-1.04.1-1.56.14-.58.05-1.17.1-1.75.15-.39.03-.77.06-1.16.08-.62.05-1.24.09-1.86.13-.36.03-.73.05-1.09.07-1.52.09-3.05.17-4.59.22-.66.03-1.32.05-1.98.07-.56.02-1.11.03-1.67.04l-1.56.03c-1,0-2.01.02-3.02.02s-2.02-.01-3.02-.02c-.52-.01-1.04-.02-1.55-.03-.56-.01-1.12-.02-1.68-.04-.66-.02-1.32-.04-1.98-.07-1.47-.05-2.94-.12-4.4-.21-.45-.02-.89-.05-1.33-.08-.57-.04-1.14-.08-1.71-.12-.43-.03-.87-.06-1.3-.1-.57-.04-1.14-.09-1.71-.14-.52-.04-1.04-.09-1.56-.14-.51-.05-1.03-.1-1.54-.15-.92-.09-1.85-.19-2.77-.3-.48-.05-.97-.11-1.45-.18-.74-.08-1.48-.18-2.22-.28-.88-.11-1.75-.23-2.63-.36-.53-.08-1.06-.15-1.59-.23-1.09-.17-2.18-.35-3.26-.53-.02,0-.04-.01-.06-.01-1.12-.19-2.24-.39-3.35-.6-.04,0-.08-.01-.11-.02-1.01-.18-2.02-.38-3.02-.58-.23-.05-.46-.1-.69-.14-2.2-.45-4.39-.93-6.56-1.45-1.07-.26-2.13-.52-3.2-.79-.18-.05-.36-.1-.54-.14-.54-.13-1.07-.27-1.6-.42-.34-.09-.68-.19-1.02-.28-.13-.04-.27-.07-.4-.11-.23-.06-.46-.13-.69-.19-1.12-.31-2.23-.62-3.34-.95-1.36-.4-2.71-.81-4.06-1.24-1.33-.42-2.66-.85-3.99-1.3-1.12-.37-2.24-.76-3.35-1.16-.2-.07-.4-.14-.6-.22-2.6-.93-5.17-1.92-7.71-2.95-.17-.07-.35-.14-.52-.21-1.15-.47-2.29-.95-3.42-1.44-2.56-1.09-5.08-2.23-7.58-3.43-1.06-.5-2.11-1.01-3.15-1.53-.24-.12-.47-.24-.71-.35-1.19-.6-2.38-1.21-3.56-1.83-.11-.06-.22-.12-.33-.17-1.03-.55-2.05-1.1-3.06-1.66-.18-.09-.35-.19-.53-.29-1.06-.58-2.12-1.18-3.17-1.78-.14-.08-.29-.17-.44-.26-1.57-.91-3.13-1.84-4.68-2.79-.25-.16-.51-.31-.76-.47-.13-.08-.25-.11-.38-.11-1.24,0-2.46,3.41-3.68,3.41-.13,0-.26-.04-.39-.12-.12-.08-.24-.15-.36-.23h0C40.3,355.14,2,289.55,2,215,2,97.36,97.36,2,215,2M215,0c-29.02,0-57.18,5.68-83.69,16.9-25.6,10.83-48.6,26.33-68.34,46.07-19.74,19.74-35.25,42.74-46.07,68.34C5.68,157.82,0,185.98,0,215c0,72.1,35.75,138.84,95.72,178.89h0s1.48.98,1.48.98c.07.05.15.09.22.14l.15.09c.45.29.96.45,1.48.45,1.63,0,2.64-1.4,3.45-2.53.11-.16.26-.36.4-.55,1.7,1.04,3.22,1.95,4.65,2.77.13.08.3.18.45.26.88.5,2.04,1.16,3.2,1.8l.12.07c.14.08.29.16.43.23,1.01.56,2.03,1.11,3.05,1.66l.06.03.06.03c.07.03.13.07.19.1,1.15.6,2.32,1.21,3.62,1.86l.03.02.03.02c.16.07.31.15.46.23l.18.09c1.05.52,2.12,1.05,3.19,1.55,2.5,1.2,5.07,2.36,7.65,3.46,1.13.49,2.29.98,3.45,1.45l.27.11.24.1c2.73,1.11,5.27,2.08,7.77,2.97.21.08.43.16.64.23,1.2.43,2.31.82,3.39,1.17,1.19.4,2.51.83,4.02,1.31,1.34.42,2.72.85,4.1,1.25,1.12.33,2.25.64,3.37.95l.3.08c.13.04.26.08.4.11l.22.06.17.05c.16.04.3.08.45.12.2.06.4.11.59.16.54.15,1.09.3,1.64.43.18.04.32.08.47.12h.02s.03.01.03.01c1.08.27,2.14.53,3.22.79,2.1.5,4.27.98,6.63,1.47h.03s.03.01.03.01c.2.04.4.08.61.12,1.02.2,2.01.4,3.01.58.09.02.18.04.27.05,1.09.21,2.19.4,3.29.59.04,0,.07.01.11.02h.06s0,.01,0,.01c1.05.18,2.11.35,3.18.52.28.04.55.08.82.12.26.04.52.07.78.11.9.13,1.79.26,2.68.37.73.1,1.47.2,2.22.28.5.07,1,.13,1.49.18.9.11,1.85.21,2.78.3l.75.07.79.08c.54.05,1.07.1,1.6.14.57.05,1.15.1,1.72.14.37.04.8.07,1.22.09h.08s.42.03.42.03l1.29.09c.47.03.92.06,1.38.08,1.44.09,2.93.16,4.42.21.65.03,1.32.05,1.99.07.56.02,1.13.03,1.71.04l1.19.02h.36c1.03.02,2.04.03,3.06.03s2.03-.01,3.04-.02l1.58-.03c.57-.01,1.13-.02,1.7-.04.66-.02,1.33-.04,2-.07,1.33-.04,2.76-.11,4.62-.22.4-.02.77-.04,1.14-.07.59-.04,1.21-.08,1.83-.13.37-.02.73-.05,1.1-.08h.08s.85-.08.85-.08l.92-.08c.51-.04,1.05-.09,1.58-.14l.79-.08.75-.07c.94-.09,1.88-.19,2.81-.3.47-.05.97-.11,1.46-.18.75-.08,1.49-.18,2.24-.28,1.77-.22,3.54-.48,5.25-.76.71-.11,1.42-.22,2.13-.34h.05l.18-.04c1.02-.17,2.04-.35,3.05-.54.21-.03.42-.08.63-.12.92-.17,1.87-.35,2.81-.54l.37-.08.37-.08c2.36-.48,4.52-.96,6.62-1.46,1.08-.26,2.16-.53,3.23-.8.67-.17,1.33-.34,2-.52.31-.08.62-.16.93-.24l.19-.05c.07-.02.17-.05.27-.07,0,0,0,0,0,0l.21-.05c1.42-.38,2.85-.8,4.08-1.16,1.03-.3,2.04-.62,3.06-.93.4-.12.81-.25,1.23-.39l.28-.09c1.11-.35,2.22-.72,3.53-1.16,1.4-.48,2.74-.94,3.99-1.39.34-.12.69-.24,1.03-.37.25-.09.49-.18.74-.27,1.69-.64,3.86-1.46,6.02-2.34,1.45-.58,2.94-1.21,4.56-1.91,1.06-.47,2.12-.93,3.17-1.4l.16-.07h.02c1.05-.48,2.14-.99,3.35-1.57,1.11-.51,2.28-1.08,3.56-1.73.58-.29,1.16-.57,1.72-.86.3-.15.63-.32.96-.49l.46-.24c.27-.14.51-.27.75-.39.25-.13.5-.26.75-.39.75-.4,1.53-.81,2.31-1.24.69-.37,1.41-.77,2.11-1.16.12-.06.21-.11.27-.15,1.2-.67,2.4-1.35,3.55-2.03.78-.45,1.56-.91,2.33-1.38.79-.47,1.58-.95,2.31-1.41.06.11.11.22.16.31.72,1.44,1.53,3.07,3.26,3.07.47,0,.93-.14,1.32-.4,60.85-39.94,97.19-107.19,97.19-179.88,0-29.02-5.68-57.18-16.9-83.69-10.83-25.6-26.33-48.6-46.07-68.34-19.74-19.74-42.74-35.25-68.34-46.07C272.18,5.68,244.02,0,215,0h0Z"/>
      </g>
      <g class="cls-10">
        <path class="cls-6" d="M428,215c0,117.64-95.36,89.75-213,89.75S2,332.64,2,215,97.36,2,215,2s213,95.36,213,213Z"/>
      </g>
      <path class="cls-1" d="M331.71,393.21c-1.12.74-2.26,1.47-3.4,2.19-.03.02-.06.04-.1.06-1.15.72-2.31,1.44-3.48,2.14-.76.46-1.53.92-2.31,1.37-1.17.69-2.36,1.37-3.55,2.03-.05.03-.09.06-.13.07-.73.41-1.47.82-2.21,1.22-.75.42-1.51.82-2.27,1.22-.49.26-.98.51-1.47.77-.47.24-.95.49-1.43.73-.56.29-1.13.57-1.7.85-1.17.59-2.34,1.16-3.53,1.71-1.12.54-2.25,1.07-3.39,1.58-.03.01-.05.02-.08.04-1.05.47-2.1.93-3.15,1.39-1.5.65-3,1.28-4.52,1.89-1.96.8-3.94,1.56-5.93,2.29-.59.23-1.18.45-1.78.66-1.31.47-2.63.93-3.95,1.38-1.16.39-2.33.78-3.5,1.15-.5.16-.99.32-1.49.47-1.01.31-2.02.62-3.03.92-1.34.39-2.69.78-4.05,1.15h-.01c-.16.04-.31.09-.47.13-.36.1-.73.19-1.1.28h0c-.66.19-1.32.36-1.99.53-1.06.27-2.13.53-3.2.79-2.18.52-4.36,1-6.56,1.45-.24.05-.49.1-.73.15-.93.19-1.86.37-2.8.54-.2.04-.4.08-.59.11-1.01.19-2.02.37-3.04.54-.02,0-.04.01-.07.01-.75.13-1.51.25-2.28.37-1.72.28-3.46.53-5.2.75-.74.1-1.48.2-2.22.28-.48.07-.97.13-1.45.18-.92.11-1.84.21-2.77.3-.51.05-1.03.1-1.54.15-.52.05-1.04.1-1.56.14-.58.05-1.17.1-1.75.15-.39.03-.77.06-1.16.08-.62.05-1.24.09-1.86.13-.36.03-.73.05-1.09.07-1.52.09-3.05.17-4.59.22-.66.03-1.32.05-1.98.07-.56.02-1.11.03-1.67.04l-1.56.03c-1,0-2.01.02-3.02.02s-2.02-.01-3.02-.02c-.52-.01-1.04-.02-1.55-.03-.56-.01-1.12-.02-1.68-.04-.66-.02-1.32-.04-1.98-.07-1.47-.05-2.94-.12-4.4-.21-.45-.02-.89-.05-1.33-.08-.57-.04-1.14-.08-1.71-.12-.43-.03-.87-.06-1.3-.1-.57-.04-1.14-.09-1.71-.14-.52-.04-1.04-.09-1.56-.14-.51-.05-1.03-.1-1.54-.15-.92-.09-1.85-.19-2.77-.3-.48-.05-.97-.11-1.45-.18-.74-.08-1.48-.18-2.22-.28-.88-.11-1.75-.23-2.63-.36-.53-.08-1.06-.15-1.59-.23-1.09-.17-2.18-.35-3.26-.53-.02,0-.04-.01-.06-.01-1.12-.19-2.24-.39-3.35-.6-.04,0-.08-.01-.11-.02-1.01-.18-2.02-.38-3.02-.58-.23-.05-.46-.1-.69-.14-2.2-.45-4.38-.94-6.56-1.45-1.07-.26-2.13-.52-3.2-.79-.18-.05-.36-.1-.54-.14-.53-.14-1.07-.28-1.6-.43-.48-.12-.95-.25-1.42-.38-2.72-.74-5.41-1.53-8.09-2.38-1.33-.42-2.66-.85-3.99-1.3-1.12-.38-2.24-.77-3.35-1.17-.2-.07-.4-.14-.6-.21-2.6-.94-5.16-1.92-7.71-2.95-.17-.07-.35-.14-.52-.21-1.15-.47-2.29-.95-3.42-1.44-2.56-1.09-5.08-2.24-7.58-3.43-1.06-.5-2.11-1.01-3.15-1.53-.24-.12-.47-.24-.71-.35-1.19-.6-2.38-1.21-3.56-1.83-.11-.06-.22-.12-.33-.17-1.03-.55-2.05-1.1-3.06-1.66-.18-.09-.35-.19-.53-.29-1.06-.58-2.12-1.18-3.17-1.78-.14-.08-.29-.17-.44-.26-3.48-2.01-6.9-4.12-10.25-6.32l9.57-18.67,52.97-103.31,2.11-4.11,47.66-92.96c1.84-3.59,6.97-3.59,8.8,0l47.37,92.39,3.24,6.33,52.12,101.66,9.58,18.68Z"/>
      <path class="cls-3" d="M98.29,393.2l9.57-18.67,52.97-103.31,2.11-4.11,47.66-92.96c1.84-3.59,6.97-3.59,8.8,0l47.37,92.39,3.24,6.33,52.12,101.66,9.58,18.68"/>
      <path class="cls-5" d="M215,172.86c1.36,0,2.53.72,3.15,1.93l47.37,92.39,3.24,6.33,52.12,101.66,9.01,17.56c-.7.45-1.46.94-2.34,1.5h-.03s-.06.05-.06.05c-1.02.64-2.23,1.39-3.46,2.13-.75.45-1.51.91-2.3,1.36-1.12.66-2.27,1.32-3.48,1.99h-.01s-.16.1-.16.1c-.72.41-1.46.81-2.21,1.22-.74.41-1.5.81-2.24,1.2-.24.13-.48.25-.73.38-.25.13-.5.26-.72.38l-.47.24c-.32.16-.63.33-.97.49-.55.28-1.1.56-1.69.84-1.24.63-2.38,1.18-3.51,1.7-1.2.58-2.28,1.08-3.31,1.54-.07.03-.13.06-.19.09-1.02.45-2.03.9-3.06,1.35-1.59.69-3.05,1.3-4.49,1.88-1.85.76-3.78,1.5-5.91,2.28-.57.22-1.15.44-1.74.65-1.3.47-2.62.93-3.92,1.37-1.15.39-2.31.77-3.48,1.14l-.29.09c-.39.13-.78.25-1.18.37-1.01.31-2.01.62-3.01.91-1.24.36-2.56.74-3.9,1.11l-.11.03c-.1.02-.19.05-.28.08-.06.02-.12.04-.22.06-.35.1-.7.18-1.06.27l-1.07.27v.02c-.31.08-.62.16-.94.24-1.05.27-2.12.53-3.18.78-2.13.51-4.26.98-6.52,1.44l-.36.07-.36.07c-.92.19-1.84.37-2.79.54-.18.04-.36.07-.57.11-.98.18-1.97.36-2.96.53h-.01l-.12.02c-.74.13-1.49.25-2.27.37-1.67.27-3.41.52-5.17.75-.72.1-1.45.2-2.17.27h-.03s-.03,0-.03,0c-.46.07-.93.12-1.41.18-.91.11-1.82.21-2.74.3l-.74.07-.8.08c-.51.05-1.02.1-1.54.14l-.89.08-.85.07h-.08c-.35.03-.69.06-1.08.08-.61.05-1.21.09-1.86.13-.33.03-.67.05-1,.06h-.06c-1.82.11-3.23.18-4.57.22-.65.03-1.31.05-1.97.07-.55.02-1.09.03-1.65.04l-.78.02h-.77c-1,.02-2,.03-3.01.03s-2.01,0-3-.02l-1.55-.03c-.55,0-1.1-.02-1.66-.04-.65-.02-1.31-.04-1.97-.07-1.46-.05-2.93-.12-4.39-.21-.44-.02-.87-.05-1.29-.08l-.93-.07-.78-.05h-.07c-.4-.03-.8-.06-1.23-.1-.56-.04-1.12-.09-1.7-.14-.51-.04-1.02-.09-1.53-.14l-.8-.08-.74-.07c-.91-.09-1.83-.19-2.76-.3-.46-.05-.93-.11-1.39-.17h-.03s-.03,0-.03,0c-.72-.08-1.45-.18-2.2-.28-.87-.11-1.73-.23-2.59-.36-.27-.04-.54-.08-.81-.12-.26-.04-.52-.07-.77-.11-1.08-.17-2.16-.35-3.23-.53l-.13-.03h-.05c-1.07-.18-2.14-.37-3.21-.58h-.02s0,0,0,0h-.02s-.09-.02-.09-.02h0c-1-.18-1.99-.38-2.96-.57-.25-.05-.5-.11-.71-.14-1.95-.4-4.03-.86-6.51-1.44-1.07-.26-2.12-.52-3.16-.78-.19-.05-.39-.11-.58-.15l-.25-.07c-.43-.11-.87-.23-1.34-.36-.47-.12-.93-.24-1.39-.37-2.72-.74-5.42-1.53-8.04-2.36-1.48-.47-2.78-.89-3.96-1.29-1.11-.38-2.22-.76-3.34-1.17l-.39-.14-.19-.07c-2.55-.92-5.13-1.91-7.65-2.93l-.27-.11-.25-.1c-1.14-.46-2.28-.95-3.4-1.43-2.37-1.01-4.83-2.12-7.53-3.41-1.05-.49-2.1-1-3.12-1.52l-.17-.09c-.19-.09-.37-.19-.56-.27-1.27-.64-2.42-1.23-3.5-1.8-.12-.07-.25-.13-.37-.19-1.01-.54-2.01-1.08-3.01-1.63h-.03s-.03-.03-.03-.03c-.11-.06-.22-.12-.33-.18l-.16-.09c-1.14-.62-2.28-1.27-3.15-1.77-.13-.08-.27-.16-.43-.26-3.07-1.77-6.13-3.65-9.13-5.59l8.99-17.55,52.97-103.31,2.11-4.11,47.66-92.96c.62-1.21,1.8-1.93,3.16-1.93M215,171.46c-1.74,0-3.48.9-4.4,2.69l-47.66,92.96-2.11,4.11-52.97,103.31-9.57,18.67c3.35,2.2,6.77,4.31,10.25,6.32.15.09.3.18.44.26,1.05.6,2.11,1.2,3.17,1.78.18.1.35.2.53.29,1.01.56,2.03,1.11,3.06,1.66.11.05.22.11.33.17,1.18.62,2.37,1.23,3.56,1.83.24.11.47.23.71.35,1.04.52,2.09,1.03,3.15,1.53,2.5,1.19,5.02,2.34,7.58,3.43,1.13.49,2.27.97,3.42,1.44.17.07.35.14.52.21,2.55,1.03,5.11,2.01,7.71,2.95.2.07.4.14.6.21,1.11.4,2.23.79,3.35,1.17,1.33.45,2.66.88,3.99,1.3,2.68.85,5.37,1.64,8.09,2.38.47.13.94.26,1.42.38.53.15,1.07.29,1.6.43.18.04.36.09.54.14,1.07.27,2.13.53,3.2.79,2.18.51,4.36,1,6.56,1.45.23.04.46.09.69.14,1,.2,2.01.4,3.02.58.03.01.07.02.11.02,1.11.21,2.23.41,3.35.6.02,0,.04.01.06.01,1.08.18,2.17.36,3.26.53.53.08,1.06.15,1.59.23.88.13,1.75.25,2.63.36.74.1,1.48.2,2.22.28.48.07.97.13,1.45.18.92.11,1.85.21,2.77.3.51.05,1.03.1,1.54.15.52.05,1.04.1,1.56.14.57.05,1.14.1,1.71.14.43.04.87.07,1.3.1.57.04,1.14.08,1.71.12.44.03.88.06,1.33.08,1.46.09,2.93.16,4.4.21.66.03,1.32.05,1.98.07.56.02,1.12.03,1.68.04.51.01,1.03.02,1.55.03,1,0,2.01.02,3.02.02s2.02-.01,3.02-.02l1.56-.03c.56-.01,1.11-.02,1.67-.04.66-.02,1.32-.04,1.98-.07,1.54-.05,3.07-.13,4.59-.22.36-.02.73-.04,1.09-.07.62-.04,1.24-.08,1.86-.13.39-.02.77-.05,1.16-.08.58-.05,1.17-.1,1.75-.15.52-.04,1.04-.09,1.56-.14.51-.05,1.03-.1,1.54-.15.93-.09,1.85-.19,2.77-.3.48-.05.97-.11,1.45-.18.74-.08,1.48-.18,2.22-.28,1.74-.22,3.48-.47,5.2-.75.77-.12,1.53-.24,2.28-.37.03,0,.05-.01.07-.01,1.02-.17,2.03-.35,3.04-.54.19-.03.39-.07.59-.11.94-.17,1.87-.35,2.8-.54.24-.05.49-.1.73-.15,2.2-.45,4.38-.93,6.56-1.45,1.07-.26,2.14-.52,3.2-.79.67-.17,1.33-.34,1.99-.52h0c.37-.1.74-.19,1.1-.29.16-.04.31-.09.47-.13h.01c1.36-.37,2.71-.76,4.05-1.15,1.01-.3,2.02-.61,3.03-.92.5-.15.99-.31,1.49-.47,1.17-.37,2.34-.76,3.5-1.15,1.32-.45,2.64-.91,3.95-1.38.6-.21,1.19-.43,1.78-.66,1.99-.73,3.97-1.49,5.93-2.29,1.52-.61,3.02-1.24,4.52-1.89,1.05-.46,2.1-.92,3.15-1.39.03-.02.05-.03.08-.04,1.14-.51,2.27-1.04,3.39-1.58,1.19-.55,2.36-1.12,3.53-1.71.57-.28,1.14-.56,1.7-.85.48-.24.96-.49,1.43-.73.49-.26.98-.51,1.47-.77.76-.4,1.52-.8,2.27-1.22.74-.4,1.48-.81,2.21-1.22.04-.01.08-.04.13-.07,1.19-.66,2.38-1.34,3.55-2.03.78-.45,1.55-.91,2.31-1.37,1.17-.7,2.33-1.42,3.48-2.14.04-.02.07-.04.1-.06,1.14-.72,2.28-1.45,3.4-2.19l-9.58-18.68-52.12-101.66-3.24-6.33-47.37-92.39c-.92-1.79-2.66-2.69-4.4-2.69h0Z"/>
      <circle class="cls-2" cx="215" cy="215" r="192.14"/>
      <g class="cls-4">
        <path class="cls-9" d="M248.77,425.39c-1.72.28-3.46.53-5.2.75-.74.1-1.48.2-2.22.28-.48.07-.97.13-1.45.18-.92.11-1.84.21-2.77.3-.51.05-1.03.1-1.54.15-.52.05-1.04.1-1.56.14-.58.05-1.17.1-1.75.15-.39.03-.77.06-1.16.08-.62.05-1.24.09-1.86.13-.36.03-.73.05-1.09.07-1.52.09-3.05.17-4.59.22-.66.03-1.32.05-1.98.07-.56.02-1.11.03-1.67.04l-1.56.03c-1,0-2.01.02-3.02.02s-2.02-.01-3.02-.02c-.52-.01-1.04-.02-1.55-.03-.56-.01-1.12-.02-1.68-.04-.66-.02-1.32-.04-1.98-.07-1.47-.05-2.94-.12-4.4-.21-.45-.02-.89-.05-1.33-.08-.57-.04-1.14-.08-1.71-.12-.43-.03-.87-.06-1.3-.1-.57-.04-1.14-.09-1.71-.14-.52-.04-1.04-.09-1.56-.14-.51-.05-1.03-.1-1.54-.15-.92-.09-1.85-.19-2.77-.3-.48-.05-.97-.11-1.45-.18-.74-.08-1.48-.18-2.22-.28-.88-.11-1.75-.23-2.63-.36-.53-.08-1.06-.15-1.59-.23-1.09-.17-2.18-.35-3.26-.53-.02,0-.04-.01-.06-.01-1.12-.19-2.24-.39-3.35-.6-.04,0-.08-.01-.11-.02-1.01-.18-2.02-.38-3.02-.58-.23-.05-.46-.1-.69-.14-2.2-.45-4.39-.93-6.56-1.45-1.07-.26-2.13-.52-3.2-.79-.18-.05-.36-.1-.54-.14-.54-.13-1.07-.27-1.6-.42-.34-.09-.68-.19-1.02-.28-.13-.04-.27-.07-.4-.11-.23-.06-.46-.13-.69-.19-1.12-.31-2.23-.62-3.34-.95-1.36-.4-2.71-.81-4.06-1.24-1.33-.42-2.66-.85-3.99-1.3-1.12-.37-2.24-.76-3.35-1.16h0s2.58-21.29,2.58-21.29l14.93-123.13.21-1.72c.23-.87.88-1.67,1.9-2.39,2.99-2.13,9.1-3.61,16.41-4.44,11.45-1.3,25.88-1,35.95.9,6.72,1.27,11.51,3.24,12.2,5.93l18.15,135.22,2.77,20.67Z"/>
      </g>
      <g class="cls-4">
        <path class="cls-7" d="M180.14,424.01c1.72.28,3.46.53,5.2.75.74.1,1.48.2,2.22.28.48.07.97.13,1.45.18.92.11,1.84.21,2.77.3.51.05,1.03.1,1.54.15.52.05,1.04.1,1.56.14.58.05,1.17.1,1.75.15.39.03.77.06,1.16.08.62.05,1.24.09,1.86.13.36.03.73.05,1.09.07,1.52.09,3.05.17,4.59.22.66.03,1.32.05,1.98.07.56.02,1.11.03,1.67.04l1.56.03c1,0,2.01.02,3.02.02s2.02-.01,3.02-.02c.52-.01,1.04-.02,1.55-.03.56-.01,1.12-.02,1.68-.04.66-.02,1.32-.04,1.98-.07,1.47-.05,2.94-.12,4.4-.21.45-.02.89-.05,1.33-.08.57-.04,1.14-.08,1.71-.12.43-.03.87-.06,1.3-.1.57-.04,1.14-.09,1.71-.14.52-.04,1.04-.09,1.56-.14.51-.05,1.03-.1,1.54-.15.92-.09,1.85-.19,2.77-.3.48-.05.97-.11,1.45-.18.74-.08,1.48-.18,2.22-.28.88-.11,1.75-.23,2.63-.36.53-.08,1.06-.15,1.59-.23,1.09-.17,2.18-.35,3.26-.53.02,0,.04-.01.06-.01,1.12-.19,2.24-.39,3.35-.6.04,0,.08-.01.11-.02,1.01-.18,2.02-.38,3.02-.58.23-.05.46-.1.69-.14,2.2-.45,4.39-.93,6.56-1.45,1.07-.26,2.13-.52,3.2-.79.18-.05.36-.1.54-.14.54-.13,1.07-.27,1.6-.42.34-.09.68-.19,1.02-.28.13-.04.27-.07.4-.11.23-.06.46-.13.69-.19,1.12-.31,2.23-.62,3.34-.95,1.36-.4,2.71-.81,4.06-1.24,1.33-.42,2.66-.85,3.99-1.3,1.12-.37,2.24-.76,3.35-1.16h0s-2.58-21.29-2.58-21.29l-14.93-123.13-.21-1.72c-.23-.87-.88-1.67-1.9-2.39-2.99-2.13-9.1-3.61-16.41-4.44-11.45-1.3-25.88-1-35.95.9-6.72,1.27-11.51,3.24-12.2,5.93l-18.15,135.22-2.77,20.67Z"/>
      </g>
      <path class="cls-11" d="M269.68,420.57h0c-.66.2-1.32.38-1.99.55-1.06.28-2.13.56-3.2.83-2.17.54-4.36,1.05-6.56,1.52-.24.05-.49.1-.73.16-.93.2-1.86.39-2.8.57-.2.04-.4.08-.59.12-1.01.2-2.02.39-3.04.57-.02,0-.04.01-.07.01-.75.14-1.51.26-2.28.39-1.72.29-3.46.56-5.2.79-.74.1-1.48.21-2.22.29-.48.07-.97.14-1.45.19-.92.12-1.84.22-2.77.31-.51.05-1.03.1-1.54.16-.52.05-1.04.1-1.56.15-.58.05-1.17.1-1.75.16-.39.03-.77.06-1.16.08-.62.05-1.24.09-1.86.14-.36.03-.73.05-1.09.07-1.52.09-3.05.18-4.59.23-.66.03-1.32.05-1.98.07-.56.02-1.11.03-1.67.04l-1.56.03c-1,.01-2.01.02-3.02.02s-2.02-.01-3.02-.02c-.52-.01-1.04-.02-1.55-.03-.56-.01-1.12-.02-1.68-.04-.66-.02-1.32-.04-1.98-.07-1.47-.05-2.94-.13-4.4-.22-.45-.02-.89-.05-1.33-.08-.57-.04-1.14-.08-1.71-.13-.43-.03-.87-.06-1.3-.1-.57-.04-1.14-.09-1.71-.15-.52-.04-1.04-.09-1.56-.15-.51-.05-1.03-.1-1.54-.16-.92-.09-1.85-.2-2.77-.31-.48-.05-.97-.12-1.45-.19-.74-.08-1.48-.19-2.22-.29-.88-.12-1.75-.24-2.63-.38-.53-.08-1.06-.16-1.59-.24-1.09-.18-2.18-.37-3.26-.56-.02,0-.04-.01-.06-.01-1.12-.2-2.24-.41-3.35-.63-.04,0-.08-.01-.11-.02-1.01-.19-2.02-.4-3.02-.61-.23-.05-.46-.1-.69-.15-2.2-.47-4.39-.97-6.56-1.52-1.07-.27-2.13-.54-3.2-.83-.18-.05-.36-.1-.54-.15-.54-.14-1.07-.28-1.6-.44h0s2.54-21.91,2.54-21.91l16.64-143.75,1.25-10.79c2.61-10.64,63.85-10.64,66.46,0l1.34,10.49,18.48,144.16,2.8,21.82Z"/>
    </g>
  </g>
</svg>