<svg width="162" height="22" viewBox="0 0 162 22" fill="none" xmlns="http://www.w3.org/2000/svg">
<mask id="mask0_18050_1134" style="mask-type:luminance" maskUnits="userSpaceOnUse" x="0" y="0" width="162" height="23">
<path d="M161.49 0H0V22.0781H161.49V0Z" fill="white"/>
</mask>
<g mask="url(#mask0_18050_1134)">
<path d="M156.07 20.2649C156.036 20.3438 155.997 20.4286 155.952 20.5187C155.907 20.6202 155.879 20.6822 155.867 20.7049H154.378C154.446 20.5583 154.519 20.3946 154.598 20.2141C154.677 20.045 154.773 19.8363 154.886 19.5882C154.954 19.4416 155.016 19.3061 155.072 19.1822C155.128 19.058 155.191 18.917 155.258 18.7592C155.337 18.6126 155.427 18.4264 155.529 18.2009L156.307 16.509L152.737 8.42188H154.294L157.001 14.8341H157.035L159.64 8.42188H161.197L156.73 18.7254C156.685 18.8269 156.612 18.9848 156.51 19.1991C156.42 19.4247 156.33 19.639 156.24 19.8419C156.161 20.0563 156.104 20.1972 156.07 20.2649Z" fill="#B5B8C0"/>
<path d="M147.269 9.7234V8.42066H148.791V5.98438H150.229V8.42066H152.344V9.7234H150.229V14.4268C150.229 14.9118 150.325 15.2727 150.517 15.5096C150.72 15.7352 151.019 15.848 151.414 15.848C151.594 15.848 151.763 15.8254 151.921 15.7803C152.079 15.7239 152.231 15.6506 152.378 15.5603V16.9646C152.198 17.0323 152.011 17.083 151.82 17.1169C151.628 17.162 151.419 17.1845 151.194 17.1845C150.472 17.1845 149.891 16.9702 149.451 16.5416C149.011 16.1017 148.791 15.5152 148.791 14.7821V9.7234H147.269Z" fill="#B5B8C0"/>
<path d="M144.697 17.0486V8.42006H146.135V17.0486H144.697ZM145.408 6.82971C145.126 6.82971 144.883 6.7282 144.68 6.52518C144.477 6.32215 144.376 6.07964 144.376 5.79767C144.376 5.50441 144.477 5.26191 144.68 5.07017C144.883 4.86715 145.126 4.76562 145.408 4.76562C145.701 4.76562 145.944 4.86715 146.135 5.07017C146.338 5.26191 146.44 5.50441 146.44 5.79767C146.44 6.07964 146.338 6.32215 146.135 6.52518C145.944 6.7282 145.701 6.82971 145.408 6.82971Z" fill="#B5B8C0"/>
<path d="M138.948 17.0504L135.463 8.42188H137.002L139.676 15.3585H139.709L142.416 8.42188H143.922L140.403 17.0504H138.948Z" fill="#B5B8C0"/>
<path d="M130.833 17.3184C130.191 17.3184 129.627 17.1943 129.142 16.9461C128.656 16.698 128.273 16.3596 127.991 15.931C127.72 15.4911 127.585 14.9949 127.585 14.4422C127.585 13.8105 127.749 13.2804 128.076 12.8518C128.403 12.4119 128.843 12.0849 129.395 11.8705C129.948 11.645 130.557 11.5322 131.222 11.5322C131.606 11.5322 131.961 11.566 132.288 11.6337C132.615 11.6901 132.898 11.7634 133.134 11.8536C133.382 11.9326 133.569 12.0115 133.693 12.0905V11.566C133.693 10.9118 133.461 10.393 132.999 10.0095C132.537 9.62601 131.973 9.43426 131.307 9.43426C130.833 9.43426 130.388 9.54141 129.971 9.75572C129.564 9.95874 129.243 10.2464 129.006 10.6186L127.923 9.80647C128.149 9.46808 128.431 9.17484 128.769 8.92669C129.108 8.67855 129.491 8.4868 129.92 8.35146C130.36 8.21612 130.822 8.14844 131.307 8.14844C132.48 8.14844 133.399 8.45861 134.065 9.07897C134.73 9.69932 135.063 10.534 135.063 11.5829V17.0477H133.693V15.8126H133.625C133.478 16.0607 133.27 16.3032 132.999 16.5401C132.728 16.7657 132.407 16.9518 132.035 17.0984C131.674 17.245 131.273 17.3184 130.833 17.3184ZM130.969 16.0495C131.465 16.0495 131.916 15.9254 132.322 15.6772C132.74 15.4291 133.072 15.0964 133.321 14.679C133.569 14.2617 133.693 13.8049 133.693 13.3086C133.433 13.1282 133.106 12.9815 132.711 12.8687C132.328 12.756 131.905 12.6996 131.443 12.6996C130.619 12.6996 130.016 12.8687 129.632 13.2071C129.249 13.5455 129.057 13.9628 129.057 14.4591C129.057 14.9328 129.237 15.3163 129.598 15.6096C129.959 15.9028 130.416 16.0495 130.969 16.0495Z" fill="#B5B8C0"/>
<path d="M122.366 17.0542V8.42565H123.737V9.81298H123.804C123.917 9.48589 124.103 9.20391 124.363 8.96704C124.633 8.7189 124.938 8.52715 125.276 8.39181C125.626 8.24519 125.97 8.17188 126.308 8.17188C126.568 8.17188 126.771 8.18879 126.917 8.22263C127.064 8.24519 127.199 8.28466 127.323 8.34106V9.89757C127.143 9.80735 126.946 9.73967 126.731 9.69455C126.528 9.64942 126.319 9.62686 126.105 9.62686C125.688 9.62686 125.304 9.7453 124.955 9.98216C124.605 10.219 124.323 10.5349 124.109 10.9296C123.906 11.3244 123.804 11.7586 123.804 12.2324V17.0542H122.366Z" fill="#B5B8C0"/>
<path d="M116.433 20.9727C115.7 20.9727 115.068 20.8488 114.538 20.6005C114.019 20.3638 113.596 20.0592 113.269 19.6869C112.953 19.3147 112.728 18.9369 112.593 18.5534L113.912 17.9951C114.093 18.4688 114.397 18.8635 114.826 19.1794C115.266 19.5065 115.801 19.67 116.433 19.67C117.335 19.67 118.029 19.405 118.514 18.8748C118.999 18.356 119.242 17.6285 119.242 16.6924V15.728H119.174C118.903 16.1453 118.514 16.5006 118.006 16.7939C117.499 17.0759 116.907 17.2168 116.23 17.2168C115.486 17.2168 114.803 17.0251 114.183 16.6416C113.574 16.2581 113.089 15.728 112.728 15.0513C112.367 14.3632 112.187 13.5737 112.187 12.6826C112.187 11.7916 112.367 11.0077 112.728 10.3309C113.089 9.64292 113.574 9.10716 114.183 8.72367C114.803 8.34018 115.486 8.14844 116.23 8.14844C116.907 8.14844 117.499 8.29506 118.006 8.58833C118.514 8.87029 118.903 9.22559 119.174 9.6542H119.242V8.41914H120.612V16.7093C120.612 17.668 120.426 18.4632 120.054 19.0949C119.693 19.7265 119.196 20.1945 118.565 20.499C117.944 20.815 117.234 20.9727 116.433 20.9727ZM116.433 15.9141C116.941 15.9141 117.409 15.79 117.837 15.5419C118.266 15.2825 118.604 14.9103 118.852 14.4253C119.112 13.9403 119.242 13.3594 119.242 12.6826C119.242 11.9833 119.112 11.3968 118.852 10.9231C118.604 10.4381 118.266 10.0715 117.837 9.82338C117.409 9.57524 116.941 9.45117 116.433 9.45117C115.926 9.45117 115.457 9.58089 115.029 9.84031C114.6 10.0884 114.256 10.455 113.997 10.94C113.737 11.4137 113.608 11.9946 113.608 12.6826C113.608 13.3707 113.737 13.9572 113.997 14.4422C114.256 14.9159 114.6 15.2825 115.029 15.5419C115.457 15.79 115.926 15.9141 116.433 15.9141Z" fill="#B5B8C0"/>
<path d="M109.445 17.0486V8.42006H110.884V17.0486H109.445ZM110.156 6.82971C109.874 6.82971 109.632 6.7282 109.428 6.52518C109.225 6.32215 109.124 6.07964 109.124 5.79767C109.124 5.50441 109.225 5.26191 109.428 5.07017C109.632 4.86715 109.874 4.76562 110.156 4.76562C110.449 4.76562 110.692 4.86715 110.884 5.07017C111.087 5.26191 111.188 5.50441 111.188 5.79767C111.188 6.07964 111.087 6.32215 110.884 6.52518C110.692 6.7282 110.449 6.82971 110.156 6.82971Z" fill="#B5B8C0"/>
<path d="M102.995 9.7234V8.42066H104.518V5.98438H105.956V8.42066H108.071V9.7234H105.956V14.4268C105.956 14.9118 106.052 15.2727 106.244 15.5096C106.446 15.7352 106.745 15.848 107.14 15.848C107.321 15.848 107.49 15.8254 107.648 15.7803C107.806 15.7239 107.958 15.6506 108.105 15.5603V16.9646C107.924 17.0323 107.738 17.083 107.546 17.1169C107.354 17.162 107.146 17.1845 106.92 17.1845C106.198 17.1845 105.617 16.9702 105.178 16.5416C104.738 16.1017 104.518 15.5152 104.518 14.7821V9.7234H102.995Z" fill="#B5B8C0"/>
<path d="M94.7568 17.0477V8.41914H96.1272V9.68804H96.1948C96.4204 9.27071 96.7871 8.90978 97.2946 8.60524C97.8134 8.30071 98.3774 8.14844 98.9864 8.14844C100.047 8.14844 100.842 8.45861 101.372 9.07897C101.913 9.68804 102.184 10.5001 102.184 11.5153V17.0477H100.746V11.7352C100.746 10.9005 100.543 10.314 100.137 9.97565C99.7422 9.62601 99.2289 9.45117 98.5973 9.45117C98.1236 9.45117 97.7064 9.58652 97.3453 9.85722C96.9844 10.1166 96.7025 10.455 96.4994 10.8723C96.2965 11.2897 96.1948 11.7296 96.1948 12.192V17.0477H94.7568Z" fill="#B5B8C0"/>
<path d="M82.9658 17.0513L87.5676 4.9375H89.1918L93.7938 17.0513H92.2204L90.9853 13.7183H85.7743L84.5393 17.0513H82.9658ZM90.4947 12.3648L88.8874 7.99977L88.4136 6.69703H88.3459L87.8722 7.99977L86.2649 12.3648H90.4947Z" fill="#B5B8C0"/>
<path d="M31.5447 17.3218C27.7709 17.3218 24.6006 14.247 24.6006 10.4734C24.6006 6.69978 27.7709 3.625 31.5447 3.625C33.6318 3.625 35.1158 4.44334 36.234 5.51179L34.9155 6.83034C34.1136 6.0782 33.0287 5.49341 31.5447 5.49341C28.7917 5.49341 26.6383 7.7149 26.6383 10.4715C26.6383 13.2282 28.7917 15.4478 31.5447 15.4478C33.3303 15.4478 34.3491 14.7306 35.0001 14.0778C35.5334 13.5426 35.8846 12.7758 36.0188 11.7221H31.4967V9.85181H37.8376C37.9037 10.1865 37.937 10.5874 37.937 11.0214C37.937 12.4246 37.5525 14.1624 36.3186 15.3982C35.1177 16.6505 33.5821 17.3181 31.5447 17.3181V17.3218Z" fill="#B5B8C0"/>
<path d="M47.4332 12.9099C47.4332 15.4495 45.4489 17.3198 43.0159 17.3198C40.583 17.3198 38.5986 15.4495 38.5986 12.9099C38.5986 10.3702 40.583 8.5 43.0159 8.5C45.4489 8.5 47.4332 10.3537 47.4332 12.9099ZM45.4985 12.9099C45.4985 11.3228 44.3474 10.2378 43.0141 10.2378C41.6809 10.2378 40.5296 11.3228 40.5296 12.9099C40.5296 14.4969 41.6809 15.5819 43.0141 15.5819C44.3474 15.5819 45.4985 14.4804 45.4985 12.9099Z" fill="#B5B8C0"/>
<path d="M57.0494 12.9099C57.0494 15.4495 55.0651 17.3198 52.6321 17.3198C50.1992 17.3198 48.2148 15.4495 48.2148 12.9099C48.2148 10.3702 50.1992 8.5 52.6321 8.5C55.0651 8.5 57.0494 10.3537 57.0494 12.9099ZM55.1147 12.9099C55.1147 11.3228 53.9636 10.2378 52.6303 10.2378C51.2971 10.2378 50.1459 11.3228 50.1459 12.9099C50.1459 14.4969 51.2971 15.5819 52.6303 15.5819C53.9636 15.5819 55.1147 14.4804 55.1147 12.9099Z" fill="#B5B8C0"/>
<path d="M66.2474 8.76665V16.6835C66.2474 19.9404 64.3276 21.2773 62.0582 21.2773C59.9212 21.2773 58.6358 19.8409 58.1521 18.6715L59.8385 17.9708C60.1383 18.6899 60.8738 19.5412 62.0582 19.5412C63.511 19.5412 64.4121 18.6401 64.4121 16.952V16.3175H64.346C63.9118 16.8527 63.0769 17.3198 62.0251 17.3198C59.822 17.3198 57.8027 15.3999 57.8027 12.9264C57.8027 10.453 59.822 8.5 62.0251 8.5C63.0769 8.5 63.9118 8.96709 64.346 9.48568H64.4121V8.76665H66.2474ZM64.5444 12.9264C64.5444 11.3725 63.5091 10.2378 62.1907 10.2378C60.872 10.2378 59.7375 11.3743 59.7375 12.9264C59.7375 14.4785 60.8554 15.5819 62.1907 15.5819C63.5257 15.5819 64.5444 14.462 64.5444 12.9264Z" fill="#B5B8C0"/>
<path d="M69.576 4.09375V17.0549H67.6396V4.09375H69.576Z" fill="#B5B8C0"/>
<path d="M77.0811 14.3627L78.5836 15.3649C78.1001 16.084 76.9304 17.3198 74.9111 17.3198C72.4083 17.3198 70.5381 15.3815 70.5381 12.9099C70.5381 10.2875 72.4249 8.5 74.6943 8.5C76.9635 8.5 78.0982 10.3206 78.466 11.3063L78.6665 11.8065L72.7742 14.245C73.2249 15.1295 73.9255 15.5819 74.9111 15.5819C75.8968 15.5819 76.581 15.0983 77.0811 14.3627ZM72.4579 12.7756L76.3971 11.1389C76.18 10.5872 75.529 10.2029 74.7623 10.2029C73.7783 10.2029 72.4083 11.0709 72.4598 12.7756H72.4579Z" fill="#B5B8C0"/>
<path d="M16.6695 17.4137C17.5367 18.0641 18.8376 17.6305 17.6451 16.4381C14.0678 12.9692 14.8267 3.42969 10.3821 3.42969C5.93759 3.42969 6.6964 12.9692 3.11909 16.4381C1.81825 17.7389 3.22749 18.0641 4.09472 17.4137C7.45524 15.1372 7.23843 11.1263 10.3821 11.1263C13.5258 11.1263 13.309 15.1372 16.6695 17.4137Z" fill="#3186FF"/>
<mask id="mask1_18050_1134" style="mask-type:alpha" maskUnits="userSpaceOnUse" x="2" y="3" width="17" height="15">
<path d="M16.6695 17.4137C17.5367 18.0641 18.8376 17.6305 17.6451 16.4381C14.0678 12.9692 14.8267 3.42969 10.3821 3.42969C5.93759 3.42969 6.6964 12.9692 3.11909 16.4381C1.81825 17.7389 3.22749 18.0641 4.09472 17.4137C7.45524 15.1372 7.23843 11.1263 10.3821 11.1263C13.5258 11.1263 13.309 15.1372 16.6695 17.4137Z" fill="black"/>
</mask>
<g mask="url(#mask1_18050_1134)">
<g filter="url(#filter0_f_18050_1134)">
<path d="M1.93313 0.201041C1.66936 2.52486 3.6719 4.66025 6.40593 4.97058C9.13995 5.28091 11.5701 3.64865 11.8339 1.32483C12.0977 -0.998986 10.0952 -3.13438 7.36113 -3.44471C4.6271 -3.75503 2.19691 -2.12278 1.93313 0.201041Z" fill="#FFE432"/>
</g>
<g filter="url(#filter1_f_18050_1134)">
<path d="M12.4738 7.79709C13.1588 10.7463 16.1574 12.5697 19.1715 11.8696C22.1856 11.1696 24.0737 8.21123 23.3887 5.26197C22.7037 2.31272 19.705 0.48938 16.691 1.18943C13.6769 1.88948 11.7888 4.84783 12.4738 7.79709Z" fill="#FC413D"/>
</g>
<g filter="url(#filter2_f_18050_1134)">
<path d="M-5.46173 9.7748C-4.59618 12.8185 -0.698061 14.377 3.24496 13.2557C7.18798 12.1344 9.68277 8.75798 8.81722 5.71426C7.95167 2.67055 4.05355 1.11211 0.110528 2.2334C-3.83249 3.35468 -6.32728 6.73109 -5.46173 9.7748Z" fill="#00B95C"/>
</g>
<g filter="url(#filter3_f_18050_1134)">
<path d="M-5.46173 9.7748C-4.59618 12.8185 -0.698061 14.377 3.24496 13.2557C7.18798 12.1344 9.68277 8.75798 8.81722 5.71426C7.95167 2.67055 4.05355 1.11211 0.110528 2.2334C-3.83249 3.35468 -6.32728 6.73109 -5.46173 9.7748Z" fill="#00B95C"/>
</g>
<g filter="url(#filter4_f_18050_1134)">
<path d="M-2.33259 12.304C-0.162775 14.5202 3.57412 14.3804 6.01401 11.9916C8.45389 9.60283 8.67282 5.86973 6.50301 3.65349C4.3332 1.43724 0.596302 1.5771 -1.84358 3.96587C-4.28346 6.35464 -4.5024 10.0877 -2.33259 12.304Z" fill="#00B95C"/>
</g>
<g filter="url(#filter5_f_18050_1134)">
<path d="M9.01974 20.657C9.69352 23.5579 12.5043 25.3836 15.2979 24.7348C18.0914 24.086 19.8098 21.2083 19.136 18.3074C18.4622 15.4064 15.6514 13.5807 12.8579 14.2295C10.0644 14.8783 8.34596 17.756 9.01974 20.657Z" fill="#3186FF"/>
</g>
<g filter="url(#filter6_f_18050_1134)">
<path d="M4.25724 -2.51082C2.84638 0.632033 4.38996 4.38618 7.70493 5.8743C11.0199 7.36242 14.8509 6.02099 16.2618 2.87814C17.6727 -0.264714 16.1291 -4.01886 12.8141 -5.50698C9.49915 -6.9951 5.6681 -5.65367 4.25724 -2.51082Z" fill="#FBBC04"/>
</g>
<g filter="url(#filter7_f_18050_1134)">
<path d="M0.477882 27.82C-2.93768 26.4792 2.89943 15.4474 4.35091 11.7501C5.8024 8.05273 9.74793 6.14241 13.1635 7.48326C16.5791 8.82411 20.6275 16.2093 19.176 19.9067C17.7245 23.604 3.89346 29.1608 0.477882 27.82Z" fill="#3186FF"/>
</g>
<g filter="url(#filter8_f_18050_1134)">
<path d="M21.173 14.0924C20.2585 15.1596 17.8723 14.6154 15.8431 12.8768C13.8139 11.1382 12.9102 8.86359 13.8246 7.79632C14.739 6.72908 17.1253 7.27331 19.1545 9.0119C21.1836 10.7505 22.0875 13.0251 21.173 14.0924Z" fill="#749BFF"/>
</g>
<g filter="url(#filter9_f_18050_1134)">
<path d="M14.3474 8.65879C18.1084 11.2029 22.4393 11.37 24.0207 9.03209C25.6022 6.69417 23.8354 2.73651 20.0745 0.192422C16.3135 -2.35167 11.9826 -2.5188 10.4011 -0.180876C8.81963 2.15705 10.5864 6.1147 14.3474 8.65879Z" fill="#FC413D"/>
</g>
<g filter="url(#filter10_f_18050_1134)">
<path d="M2.00026 4.52158C1.06851 6.76924 1.37282 9.03061 2.67995 9.57247C3.98709 10.1143 5.80206 8.7315 6.73381 6.48383C7.66557 4.23616 7.36126 1.9748 6.05412 1.43294C4.74698 0.891076 2.93201 2.27391 2.00026 4.52158Z" fill="#FFEE48"/>
</g>
</g>
</g>
<defs>
<filter id="filter0_f_18050_1134" x="0.464239" y="-4.93029" width="12.8391" height="11.384" filterUnits="userSpaceOnUse" color-interpolation-filters="sRGB">
<feFlood flood-opacity="0" result="BackgroundImageFix"/>
<feBlend mode="normal" in="SourceGraphic" in2="BackgroundImageFix" result="shape"/>
<feGaussianBlur stdDeviation="0.722959" result="effect1_foregroundBlur_18050_1134"/>
</filter>
<filter id="filter1_f_18050_1134" x="5.34274" y="-5.95121" width="25.1768" height="24.9571" filterUnits="userSpaceOnUse" color-interpolation-filters="sRGB">
<feFlood flood-opacity="0" result="BackgroundImageFix"/>
<feBlend mode="normal" in="SourceGraphic" in2="BackgroundImageFix" result="shape"/>
<feGaussianBlur stdDeviation="3.49513" result="effect1_foregroundBlur_18050_1134"/>
</filter>
<filter id="filter2_f_18050_1134" x="-11.5752" y="-4.0752" width="26.5059" height="23.6348" filterUnits="userSpaceOnUse" color-interpolation-filters="sRGB">
<feFlood flood-opacity="0" result="BackgroundImageFix"/>
<feBlend mode="normal" in="SourceGraphic" in2="BackgroundImageFix" result="shape"/>
<feGaussianBlur stdDeviation="2.97119" result="effect1_foregroundBlur_18050_1134"/>
</filter>
<filter id="filter3_f_18050_1134" x="-11.5752" y="-4.0752" width="26.5059" height="23.6348" filterUnits="userSpaceOnUse" color-interpolation-filters="sRGB">
<feFlood flood-opacity="0" result="BackgroundImageFix"/>
<feBlend mode="normal" in="SourceGraphic" in2="BackgroundImageFix" result="shape"/>
<feGaussianBlur stdDeviation="2.97119" result="effect1_foregroundBlur_18050_1134"/>
</filter>
<filter id="filter4_f_18050_1134" x="-9.76953" y="-3.86426" width="23.709" height="23.6816" filterUnits="userSpaceOnUse" color-interpolation-filters="sRGB">
<feFlood flood-opacity="0" result="BackgroundImageFix"/>
<feBlend mode="normal" in="SourceGraphic" in2="BackgroundImageFix" result="shape"/>
<feGaussianBlur stdDeviation="2.97119" result="effect1_foregroundBlur_18050_1134"/>
</filter>
<filter id="filter5_f_18050_1134" x="3.22603" y="8.45454" width="21.7032" height="22.0597" filterUnits="userSpaceOnUse" color-interpolation-filters="sRGB">
<feFlood flood-opacity="0" result="BackgroundImageFix"/>
<feBlend mode="normal" in="SourceGraphic" in2="BackgroundImageFix" result="shape"/>
<feGaussianBlur stdDeviation="2.82351" result="effect1_foregroundBlur_18050_1134"/>
</filter>
<filter id="filter6_f_18050_1134" x="-1.38343" y="-11.235" width="23.2854" height="22.8372" filterUnits="userSpaceOnUse" color-interpolation-filters="sRGB">
<feFlood flood-opacity="0" result="BackgroundImageFix"/>
<feBlend mode="normal" in="SourceGraphic" in2="BackgroundImageFix" result="shape"/>
<feGaussianBlur stdDeviation="2.5589" result="effect1_foregroundBlur_18050_1134"/>
</filter>
<filter id="filter7_f_18050_1134" x="-5.14853" y="2.48428" width="29.1984" height="30.1096" filterUnits="userSpaceOnUse" color-interpolation-filters="sRGB">
<feFlood flood-opacity="0" result="BackgroundImageFix"/>
<feBlend mode="normal" in="SourceGraphic" in2="BackgroundImageFix" result="shape"/>
<feGaussianBlur stdDeviation="2.2852" result="effect1_foregroundBlur_18050_1134"/>
</filter>
<filter id="filter8_f_18050_1134" x="9.37808" y="3.16031" width="16.2419" height="15.57" filterUnits="userSpaceOnUse" color-interpolation-filters="sRGB">
<feFlood flood-opacity="0" result="BackgroundImageFix"/>
<feBlend mode="normal" in="SourceGraphic" in2="BackgroundImageFix" result="shape"/>
<feGaussianBlur stdDeviation="2.04485" result="effect1_foregroundBlur_18050_1134"/>
</filter>
<filter id="filter9_f_18050_1134" x="6.36706" y="-5.28236" width="21.6878" height="19.4163" filterUnits="userSpaceOnUse" color-interpolation-filters="sRGB">
<feFlood flood-opacity="0" result="BackgroundImageFix"/>
<feBlend mode="normal" in="SourceGraphic" in2="BackgroundImageFix" result="shape"/>
<feGaussianBlur stdDeviation="1.72712" result="effect1_foregroundBlur_18050_1134"/>
</filter>
<filter id="filter10_f_18050_1134" x="-2.81523" y="-2.96269" width="14.3639" height="16.9254" filterUnits="userSpaceOnUse" color-interpolation-filters="sRGB">
<feFlood flood-opacity="0" result="BackgroundImageFix"/>
<feBlend mode="normal" in="SourceGraphic" in2="BackgroundImageFix" result="shape"/>
<feGaussianBlur stdDeviation="2.1376" result="effect1_foregroundBlur_18050_1134"/>
</filter>
</defs>
</svg>
